REM DIRINDEX 1\2,1\3,1\4,1\5
REM DIRNAME cjc004,folder01,folder02,folder03,folder04
TITLE ""
FILE "1Q_t_1247-1256.mp3" MP3
  TRACK 01 AUDIO
    TITLE "3:cjc004_4646"
    INDEX 01 00:00:00
  TRACK 02 AUDIO
    TITLE "0:"
    INDEX 01 00:00:62
  TRACK 03 AUDIO
    TITLE "4:cjc004_4647"
    INDEX 01 00:01:19
  TRACK 04 AUDIO
    TITLE "0:"
    INDEX 01 00:03:21
  TRACK 05 AUDIO
    TITLE "5:cjc004_4648"
    INDEX 01 00:03:49
  TRACK 06 AUDIO
    TITLE "0:"
    INDEX 01 00:07:72
  TRACK 07 AUDIO
    TITLE "3:cjc004_4649"
    INDEX 01 00:08:48
  TRACK 08 AUDIO
    TITLE "0:"
    INDEX 01 00:09:51
  TRACK 09 AUDIO
    TITLE "4:cjc004_4650"
    INDEX 01 00:10:04
  TRACK 10 AUDIO
    TITLE "0:"
    INDEX 01 00:11:15
  TRACK 11 AUDIO
    TITLE "5:cjc004_4651"
    INDEX 01 00:11:33
  TRACK 12 AUDIO
    TITLE "0:"
    INDEX 01 00:15:50
  TRACK 13 AUDIO
    TITLE "3:cjc004_4652"
    INDEX 01 00:16:28
  TRACK 14 AUDIO
    TITLE "0:"
    INDEX 01 00:17:31
  TRACK 15 AUDIO
    TITLE "4:cjc004_4653"
    INDEX 01 00:17:59
  TRACK 16 AUDIO
    TITLE "0:"
    INDEX 01 00:18:68
  TRACK 17 AUDIO
    TITLE "5:cjc004_4654"
    INDEX 01 00:19:15
  TRACK 18 AUDIO
    TITLE "0:"
    INDEX 01 00:24:25
  TRACK 19 AUDIO
    TITLE "3:cjc004_4655"
    INDEX 01 00:25:05
  TRACK 20 AUDIO
    TITLE "0:"
    INDEX 01 00:26:09
  TRACK 21 AUDIO
    TITLE "4:cjc004_4656"
    INDEX 01 00:26:38
  TRACK 22 AUDIO
    TITLE "0:"
    INDEX 01 00:28:02
  TRACK 23 AUDIO
    TITLE "5:cjc004_4657"
    INDEX 01 00:28:31
  TRACK 24 AUDIO
    TITLE "0:"
    INDEX 01 00:32:23
  TRACK 25 AUDIO
    TITLE "3:cjc004_4658"
    INDEX 01 00:33:01
  TRACK 26 AUDIO
    TITLE "0:"
    INDEX 01 00:34:22
  TRACK 27 AUDIO
    TITLE "4:cjc004_4659"
    INDEX 01 00:34:49
  TRACK 28 AUDIO
    TITLE "0:"
    INDEX 01 00:36:13
  TRACK 29 AUDIO
    TITLE "5:cjc004_4660"
    INDEX 01 00:36:35
  TRACK 30 AUDIO
    TITLE "0:"
    INDEX 01 00:42:25
  TRACK 31 AUDIO
    TITLE "3:cjc004_4661"
    INDEX 01 00:43:09
  TRACK 32 AUDIO
    TITLE "0:"
    INDEX 01 00:44:18
  TRACK 33 AUDIO
    TITLE "4:cjc004_4662"
    INDEX 01 00:44:46
  TRACK 34 AUDIO
    TITLE "0:"
    INDEX 01 00:46:00
  TRACK 35 AUDIO
    TITLE "5:cjc004_4663"
    INDEX 01 00:46:23
  TRACK 36 AUDIO
    TITLE "0:"
    INDEX 01 00:50:56
  TRACK 37 AUDIO
    TITLE "3:cjc004_4664"
    INDEX 01 00:51:28
  TRACK 38 AUDIO
    TITLE "0:"
    INDEX 01 00:52:51
  TRACK 39 AUDIO
    TITLE "4:cjc004_4665"
    INDEX 01 00:53:02
  TRACK 40 AUDIO
    TITLE "0:"
    INDEX 01 00:54:23
  TRACK 41 AUDIO
    TITLE "5:cjc004_4666"
    INDEX 01 00:54:50
  TRACK 42 AUDIO
    TITLE "0:"
    INDEX 01 00:58:50
  TRACK 43 AUDIO
    TITLE "3:cjc004_4667"
    INDEX 01 00:59:28
  TRACK 44 AUDIO
    TITLE "0:"
    INDEX 01 01:00:51
  TRACK 45 AUDIO
    TITLE "4:cjc004_4668"
    INDEX 01 01:01:05
  TRACK 46 AUDIO
    TITLE "0:"
    INDEX 01 01:02:32
  TRACK 47 AUDIO
    TITLE "5:cjc004_4669"
    INDEX 01 01:02:57
  TRACK 48 AUDIO
    TITLE "0:"
    INDEX 01 01:06:51
  TRACK 49 AUDIO
    TITLE "3:cjc004_4670"
    INDEX 01 01:07:27
  TRACK 50 AUDIO
    TITLE "0:"
    INDEX 01 01:08:38
  TRACK 51 AUDIO
    TITLE "4:cjc004_4671"
    INDEX 01 01:08:60
  TRACK 52 AUDIO
    TITLE "0:"
    INDEX 01 01:09:69
  TRACK 53 AUDIO
    TITLE "5:cjc004_4672"
    INDEX 01 01:10:14
  TRACK 54 AUDIO
    TITLE "0:"
    INDEX 01 01:14:27
  TRACK 55 AUDIO
    TITLE "3:cjc004_4673"
    INDEX 01 01:15:01
  TRACK 56 AUDIO
    TITLE "0:"
    INDEX 01 01:16:34
  TRACK 57 AUDIO
    TITLE "4:cjc004_4674"
    INDEX 01 01:16:61
  TRACK 58 AUDIO
    TITLE "0:"
    INDEX 01 01:18:15
  TRACK 59 AUDIO
    TITLE "5:cjc004_4675"
    INDEX 01 01:18:37
  TRACK 60 AUDIO
    TITLE "0:"
    INDEX 01 01:22:52
